<svg xmlns="http://www.w3.org/2000/svg" viewBox="0 0 156.76 156.77"><defs><style>.cls-1{fill:#1d1d1b;fill-rule:evenodd;}</style></defs><title>champions_league</title><g id="Layer_2" data-name="Layer 2"><g id="Layer_1-2" data-name="Layer 1"><path class="cls-1" d="M65.54,8.39c6.58-3.34,18.85-9,29.61-8.34-1.83,1.57-11.63,9.34-15,12.56,4.84,1.87,14.77,5.62,17.82,8-6,.27-17.68.88-24.67,1-2.4,3.6-6.57,13.7-7.49,19.57C61.85,38.4,58,31.33,54.68,26c-5,.76-13.53,4.42-18.08,5.75a64.58,64.58,0,0,1,13.7-14.4A48.18,48.18,0,0,1,45.8,5.19c11.68.12,16.78,2.72,19.74,3.2Z"/><path class="cls-1" d="M42.11,74c5.26-3.85,14.56-8.21,20.32-9.27-.38-10.5,1.34-16.37,2.35-24.33,4.92,7,8.24,13,12.9,18.61,8.47-2.33,17.95-5.29,25.66-7-6.65,9.36-10.5,14.27-15.5,21.21a217.51,217.51,0,0,0,16.89,19.42l.13.15c-8.29-.85-18-3.6-25.53-5.84-4.7,6.14-8.26,13.42-12.58,20.19a101.15,101.15,0,0,1-4.44-25.28c-6.61-2.5-13.21-5-20.2-7.87Z"/><path class="cls-1" d="M132.66,32.45c9.69,5.06,15.15,11.69,19.4,17.5a140.93,140.93,0,0,0-14.45-1.39,105.25,105.25,0,0,1,1.07,21.3c-4.42-7.34-9.82-14.51-13.57-21-8,.44-16.69,2.28-21.74,3.3,3.32-4.17,8.85-11.12,11.86-15.73-3.48-3.2-10.49-10.88-17.82-16,10.51,0,17.36,2.73,23,4.94,2-2.29,3.4-8.17,4.94-12a47.64,47.64,0,0,1,7.29,19.08Z"/><path class="cls-1" d="M104.43,92.65c10.24.52,16,.53,23.17.63a164.11,164.11,0,0,0,11.12-24.7A100.05,100.05,0,0,1,141.2,90a91.17,91.17,0,0,0,15.56-5.84c-2.11,7.13-6.62,14.33-14.36,21.33.85,6.63,1.31,10.72,1,16a75.2,75.2,0,0,1-12.64-6,57.14,57.14,0,0,1-19.88,7.18c3.32-5,7.15-12.27,8.83-15.12a77,77,0,0,1-15.3-14.86Z"/><path class="cls-1" d="M79.46,137.81c6.45.55,12.66,1,18.42.88a179.67,179.67,0,0,0,13.27-16.32,98.78,98.78,0,0,1,.39,15.88c7-.38,14.91-2.54,20.76-3C128,140,112.79,153.73,87.59,156.61a46.69,46.69,0,0,1-9.46-.19c4.46-2.8,9.24-6.23,11.17-9.08-3.28-2.84-6.94-5.75-9.84-9.53Z"/><path class="cls-1" d="M32,105.86c5.71,5.16,12.5,10,18.09,14.16,5.89-4.26,12.28-9.52,16.83-13.08-.84,7-2.13,14.52-3,21.47,5.08,3,10.86,6.56,15.94,9.52-4.79.4-10.33.56-16.57.89-.21,6.52.46,11.2.89,17a7.67,7.67,0,0,1-4.34-2.18c-4.14-4.2-9.61-11.3-11.92-16A57.43,57.43,0,0,1,22,131.45c7.09-1.63,13.61-4,18.1-6.79-2-6-5.67-13-8.12-18.8Z"/><path class="cls-1" d="M21.41,60.26c.76,4.7,1.58,11.8,2,15.24a91.82,91.82,0,0,1,19.12-1.84C38.31,77.21,31.76,82.13,26.62,90c2.5,6.72,4.47,12.57,5.77,16.58-4.13-2.12-8.83-5.25-13.14-7.94-1.64,2.9-6.08,8.66-9.46,15.62-1.36-.82-1.83-2.47-2.74-4.25-.7-4.39.63-14,2-19.75C6,88,1.85,85.63,0,82.48c3.84-2.72,8.74-3.8,13.08-4.76C15,70.87,18.32,64,21.41,60.26Z"/><path class="cls-1" d="M2.5,63c0-14.59,14.53-40.32,27-46.6A56.09,56.09,0,0,0,25.07,32c4-.05,7.6-.12,11.57-.16A92.59,92.59,0,0,0,22.53,43.55a103.9,103.9,0,0,0-1.07,17.37,86.36,86.36,0,0,1-7.67-9.64A65,65,0,0,0,2.5,63Z"/></g></g></svg>